<?xml version="1.0" standalone="no"?>
<svg xmlns:xlink="http://www.w3.org/1999/xlink" id="wave" style="transform:rotate(180deg); transition: 0.3s" viewBox="0 0 1440 100" version="1.1" xmlns="http://www.w3.org/2000/svg"><defs><linearGradient id="sw-gradient-0" x1="0" x2="0" y1="1" y2="0"><stop stop-color="rgba(242, 242, 242, 1)" offset="0%"/><stop stop-color="rgba(242, 242, 242, 1)" offset="100%"/></linearGradient></defs><path style="transform:translate(0, 0px); opacity:1" fill="url(#sw-gradient-0)" d="M0,40L48,35C96,30,192,20,288,25C384,30,480,50,576,48.3C672,47,768,23,864,23.3C960,23,1056,47,1152,53.3C1248,60,1344,50,1440,50C1536,50,1632,60,1728,56.7C1824,53,1920,37,2016,25C2112,13,2208,7,2304,16.7C2400,27,2496,53,2592,68.3C2688,83,2784,87,2880,73.3C2976,60,3072,30,3168,21.7C3264,13,3360,27,3456,41.7C3552,57,3648,73,3744,70C3840,67,3936,43,4032,40C4128,37,4224,53,4320,58.3C4416,63,4512,57,4608,51.7C4704,47,4800,43,4896,38.3C4992,33,5088,27,5184,30C5280,33,5376,47,5472,48.3C5568,50,5664,40,5760,40C5856,40,5952,50,6048,56.7C6144,63,6240,67,6336,60C6432,53,6528,37,6624,33.3C6720,30,6816,40,6864,45L6912,50L6912,100L6864,100C6816,100,6720,100,6624,100C6528,100,6432,100,6336,100C6240,100,6144,100,6048,100C5952,100,5856,100,5760,100C5664,100,5568,100,5472,100C5376,100,5280,100,5184,100C5088,100,4992,100,4896,100C4800,100,4704,100,4608,100C4512,100,4416,100,4320,100C4224,100,4128,100,4032,100C3936,100,3840,100,3744,100C3648,100,3552,100,3456,100C3360,100,3264,100,3168,100C3072,100,2976,100,2880,100C2784,100,2688,100,2592,100C2496,100,2400,100,2304,100C2208,100,2112,100,2016,100C1920,100,1824,100,1728,100C1632,100,1536,100,1440,100C1344,100,1248,100,1152,100C1056,100,960,100,864,100C768,100,672,100,576,100C480,100,384,100,288,100C192,100,96,100,48,100L0,100Z"/></svg>